<svg xmlns="http://www.w3.org/2000/svg" viewBox="0 0 960 560" role="img" aria-labelledby="title desc">
  <title id="title">OCR fraud analytics dashboard</title>
  <desc id="desc">Dark dashboard mockup showing invoice extraction, fraud score and anomaly flags.</desc>
  <defs>
    <linearGradient id="bg" x1="0" x2="1" y1="0" y2="1"><stop stop-color="#0b0f19"/><stop offset="1" stop-color="#111827"/></linearGradient>
    <linearGradient id="g" x1="0" x2="1"><stop stop-color="#22d3ee"/><stop offset="1" stop-color="#8b5cf6"/></linearGradient>
  </defs>
  <rect width="960" height="560" rx="26" fill="url(#bg)"/>
  <circle cx="790" cy="90" r="170" fill="#3b82f6" opacity=".13"/>
  <circle cx="170" cy="470" r="170" fill="#8b5cf6" opacity=".14"/>
  <rect x="48" y="42" width="864" height="476" rx="18" fill="#0f172a" stroke="#334155"/>
  <rect x="82" y="82" width="275" height="360" rx="14" fill="#111827" stroke="#475569"/>
  <rect x="112" y="120" width="130" height="16" rx="8" fill="#e5e7eb"/>
  <rect x="112" y="158" width="205" height="10" rx="5" fill="#64748b"/>
  <rect x="112" y="184" width="178" height="10" rx="5" fill="#64748b"/>
  <rect x="112" y="230" width="205" height="82" rx="10" fill="#172033" stroke="#334155"/>
  <path d="M132 272h64m28 0h62" stroke="#22d3ee" stroke-width="10" stroke-linecap="round"/>
  <rect x="112" y="344" width="164" height="12" rx="6" fill="#64748b"/>
  <rect x="112" y="374" width="205" height="12" rx="6" fill="#64748b"/>
  <rect x="402" y="82" width="214" height="142" rx="14" fill="#111827" stroke="#334155"/>
  <text x="430" y="126" fill="#9ca3af" font-family="Arial" font-size="18">Fraud Score</text>
  <text x="430" y="180" fill="#fff" font-family="Arial" font-size="54" font-weight="700">87</text>
  <path d="M526 177a54 54 0 1 0-1-1" fill="none" stroke="#1f2937" stroke-width="16"/>
  <path d="M526 177a54 54 0 1 0-40-92" fill="none" stroke="url(#g)" stroke-width="16" stroke-linecap="round"/>
  <rect x="646" y="82" width="220" height="142" rx="14" fill="#111827" stroke="#334155"/>
  <text x="674" y="126" fill="#9ca3af" font-family="Arial" font-size="18">Flagged Bills</text>
  <text x="674" y="180" fill="#fff" font-family="Arial" font-size="54" font-weight="700">24</text>
  <rect x="402" y="258" width="464" height="184" rx="14" fill="#111827" stroke="#334155"/>
  <text x="430" y="304" fill="#fff" font-family="Arial" font-size="24" font-weight="700">Anomaly Signals</text>
  <g fill="none" stroke-linecap="round" stroke-width="14">
    <path d="M440 352h260" stroke="#ef4444"/>
    <path d="M440 392h196" stroke="#f59e0b"/>
    <path d="M440 432h296" stroke="#22d3ee"/>
  </g>
</svg>
