<svg xmlns="http://www.w3.org/2000/svg" viewBox="0 0 960 560" role="img" aria-labelledby="title desc">
  <title id="title">Power BI executive dashboard</title>
  <desc id="desc">Dark executive dashboard mockup with KPI cards, charts and regional analytics.</desc>
  <defs>
    <linearGradient id="bg2" x1="0" x2="1" y1="0" y2="1"><stop stop-color="#0b0f19"/><stop offset="1" stop-color="#111827"/></linearGradient>
    <linearGradient id="bar2" x1="0" x2="0" y1="0" y2="1"><stop stop-color="#22d3ee"/><stop offset="1" stop-color="#3b82f6"/></linearGradient>
  </defs>
  <rect width="960" height="560" rx="26" fill="url(#bg2)"/>
  <rect x="48" y="42" width="864" height="476" rx="18" fill="#0f172a" stroke="#334155"/>
  <text x="84" y="92" fill="#fff" font-family="Arial" font-size="30" font-weight="700">Executive Performance</text>
  <rect x="84" y="124" width="178" height="108" rx="14" fill="#111827" stroke="#334155"/>
  <text x="110" y="162" fill="#9ca3af" font-family="Arial" font-size="16">Revenue</text>
  <text x="110" y="205" fill="#fff" font-family="Arial" font-size="36" font-weight="700">+42%</text>
  <rect x="286" y="124" width="178" height="108" rx="14" fill="#111827" stroke="#334155"/>
  <text x="312" y="162" fill="#9ca3af" font-family="Arial" font-size="16">Conversion</text>
  <text x="312" y="205" fill="#fff" font-family="Arial" font-size="36" font-weight="700">18.6%</text>
  <rect x="488" y="124" width="178" height="108" rx="14" fill="#111827" stroke="#334155"/>
  <text x="514" y="162" fill="#9ca3af" font-family="Arial" font-size="16">Target</text>
  <text x="514" y="205" fill="#fff" font-family="Arial" font-size="36" font-weight="700">93%</text>
  <rect x="84" y="268" width="420" height="192" rx="14" fill="#111827" stroke="#334155"/>
  <path d="M126 416c50-90 86-45 126-98s92-18 202-78" fill="none" stroke="#8b5cf6" stroke-width="12" stroke-linecap="round"/>
  <path d="M126 424h330" stroke="#334155" stroke-width="2"/>
  <rect x="538" y="268" width="328" height="192" rx="14" fill="#111827" stroke="#334155"/>
  <g fill="url(#bar2)">
    <rect x="582" y="382" width="34" height="48" rx="7"/>
    <rect x="636" y="342" width="34" height="88" rx="7"/>
    <rect x="690" y="308" width="34" height="122" rx="7"/>
    <rect x="744" y="356" width="34" height="74" rx="7"/>
    <rect x="798" y="292" width="34" height="138" rx="7"/>
  </g>
</svg>
