<svg xmlns="http://www.w3.org/2000/svg" viewBox="0 0 960 560" role="img" aria-labelledby="title desc">
  <title id="title">Automated sales reporting dashboard</title>
  <desc id="desc">Dark automated sales reporting mockup with pipeline refresh and KPI output.</desc>
  <defs>
    <linearGradient id="bg4" x1="0" x2="1" y1="0" y2="1"><stop stop-color="#0b0f19"/><stop offset="1" stop-color="#111827"/></linearGradient>
    <linearGradient id="g4" x1="0" x2="1"><stop stop-color="#3b82f6"/><stop offset="1" stop-color="#8b5cf6"/></linearGradient>
  </defs>
  <rect width="960" height="560" rx="26" fill="url(#bg4)"/>
  <rect x="54" y="54" width="852" height="452" rx="20" fill="#0f172a" stroke="#334155"/>
  <text x="92" y="112" fill="#fff" font-family="Arial" font-size="30" font-weight="700">Automated Sales Report</text>
  <rect x="92" y="152" width="204" height="108" rx="14" fill="#111827" stroke="#334155"/>
  <text x="122" y="190" fill="#9ca3af" font-family="Arial" font-size="16">Weekly Sales</text>
  <text x="122" y="232" fill="#fff" font-family="Arial" font-size="34" font-weight="700">Rs 8.4L</text>
  <rect x="326" y="152" width="204" height="108" rx="14" fill="#111827" stroke="#334155"/>
  <text x="356" y="190" fill="#9ca3af" font-family="Arial" font-size="16">Variance</text>
  <text x="356" y="232" fill="#86efac" font-family="Arial" font-size="34" font-weight="700">+16%</text>
  <rect x="560" y="152" width="254" height="108" rx="14" fill="#111827" stroke="#334155"/>
  <text x="590" y="190" fill="#9ca3af" font-family="Arial" font-size="16">Refresh Status</text>
  <text x="590" y="232" fill="#22d3ee" font-family="Arial" font-size="34" font-weight="700">Auto</text>
  <rect x="92" y="306" width="722" height="132" rx="14" fill="#111827" stroke="#334155"/>
  <g fill="url(#g4)">
    <rect x="132" y="386" width="62" height="28" rx="8"/>
    <rect x="220" y="354" width="62" height="60" rx="8"/>
    <rect x="308" y="330" width="62" height="84" rx="8"/>
    <rect x="396" y="366" width="62" height="48" rx="8"/>
    <rect x="484" y="318" width="62" height="96" rx="8"/>
    <rect x="572" y="342" width="62" height="72" rx="8"/>
    <rect x="660" y="300" width="62" height="114" rx="8"/>
  </g>
</svg>
