<svg xmlns="http://www.w3.org/2000/svg" viewBox="0 0 960 560" role="img" aria-labelledby="title desc">
  <title id="title">SQL data reconciliation workflow</title>
  <desc id="desc">Dark data reconciliation mockup comparing source systems and exception results.</desc>
  <defs>
    <linearGradient id="bg3" x1="0" x2="1" y1="0" y2="1"><stop stop-color="#0b0f19"/><stop offset="1" stop-color="#111827"/></linearGradient>
    <linearGradient id="g3" x1="0" x2="1"><stop stop-color="#22d3ee"/><stop offset="1" stop-color="#8b5cf6"/></linearGradient>
  </defs>
  <rect width="960" height="560" rx="26" fill="url(#bg3)"/>
  <rect x="58" y="60" width="270" height="380" rx="18" fill="#111827" stroke="#334155"/>
  <rect x="632" y="60" width="270" height="380" rx="18" fill="#111827" stroke="#334155"/>
  <rect x="370" y="155" width="220" height="190" rx="18" fill="#0f172a" stroke="#475569"/>
  <text x="108" y="114" fill="#fff" font-family="Arial" font-size="24" font-weight="700">Source A</text>
  <text x="682" y="114" fill="#fff" font-family="Arial" font-size="24" font-weight="700">Source B</text>
  <text x="412" y="210" fill="#fff" font-family="Arial" font-size="25" font-weight="700">SQL Checks</text>
  <g stroke="#64748b" stroke-width="10" stroke-linecap="round">
    <path d="M108 160h170M108 208h150M108 256h185M108 304h126M108 352h172"/>
    <path d="M682 160h170M682 208h130M682 256h188M682 304h142M682 352h168"/>
  </g>
  <path d="M328 250h42M590 250h42" stroke="url(#g3)" stroke-width="10" stroke-linecap="round"/>
  <rect x="250" y="470" width="460" height="48" rx="14" fill="#111827" stroke="#334155"/>
  <text x="300" y="501" fill="#22d3ee" font-family="Arial" font-size="20" font-weight="700">Exceptions: Missing, Duplicate, Amount Mismatch</text>
</svg>
